<?xml version="1.0" standalone="no"?>
<!DOCTYPE svg PUBLIC "-//W3C//DTD SVG 20010904//EN"
 "http://www.w3.org/TR/2001/REC-SVG-20010904/DTD/svg10.dtd">
<svg version="1.0" xmlns="http://www.w3.org/2000/svg"
 width="497.000000pt" height="497.000000pt" viewBox="0 0 497.000000 497.000000"
 preserveAspectRatio="xMidYMid meet">
<metadata>
Created by potrace 1.11, written by Peter Selinger 2001-2013
</metadata>
<g transform="translate(0.000000,497.000000) scale(0.100000,-0.100000)"
fill="#000000" stroke="none">
<path d="M2397 4646 c-54 -16 -117 -54 -155 -95 -14 -14 -51 -81 -83 -149 -33
-68 -83 -172 -114 -232 -45 -91 -122 -250 -339 -706 l-20 -41 -150 -22 c-163
-24 -554 -83 -866 -131 -107 -16 -214 -37 -237 -45 -60 -23 -128 -87 -160
-153 -38 -76 -39 -193 -4 -262 16 -31 166 -188 472 -495 l450 -451 -61 -359
c-34 -198 -81 -477 -105 -620 -40 -232 -44 -266 -34 -315 39 -200 260 -313
447 -230 25 11 165 85 311 164 146 79 361 194 476 256 116 62 221 119 235 127
24 13 36 8 245 -105 617 -333 787 -424 827 -442 148 -65 332 -6 412 133 52 90
51 121 -3 442 -27 160 -75 438 -106 620 l-56 329 450 451 c300 300 457 465
473 495 19 37 23 60 22 130 0 96 -17 140 -80 210 -60 66 -115 85 -339 119
-110 17 -270 42 -355 55 -85 14 -267 41 -405 61 -137 20 -253 39 -257 43 -9
10 -112 217 -228 462 -238 500 -309 638 -346 674 -81 78 -211 112 -317 82z
m173 -482 c10 -29 5 -44 -65 -188 -41 -86 -75 -158 -75 -161 0 -3 -65 -137
-144 -299 -189 -384 -188 -383 -481 -425 -152 -23 -612 -93 -873 -134 -78 -13
-144 -26 -145 -30 -1 -4 194 -204 434 -445 475 -476 480 -482 487 -597 2 -42
-17 -177 -66 -460 -39 -220 -80 -464 -92 -543 l-23 -143 -108 -55 c-60 -30
-109 -51 -109 -47 0 9 87 523 154 913 25 146 46 288 46 317 0 29 -10 78 -21
110 -20 54 -49 85 -470 505 -247 245 -449 448 -449 451 0 7 144 30 810 128
304 44 415 65 449 81 87 42 115 83 248 357 68 141 188 388 266 548 l142 293
37 -73 c20 -39 42 -86 48 -103z m294 -3000 c50 -25 150 -79 221 -119 72 -39
224 -121 338 -181 115 -60 212 -116 217 -124 4 -8 11 -37 14 -63 l7 -48 -93
47 c-51 25 -147 77 -213 114 -66 37 -215 117 -332 178 -117 62 -235 126 -264
142 -28 17 -79 45 -113 62 -57 30 -59 32 -36 39 14 5 56 6 94 4 57 -3 83 -12
160 -51z"/>
</g>
</svg>
